<?xml version="1.0" encoding="utf-8"?>
<!-- Generator: Adobe Illustrator 15.1.0, SVG Export Plug-In . SVG Version: 6.00 Build 0)  -->
<!DOCTYPE svg PUBLIC "-//W3C//DTD SVG 1.1//EN" "http://www.w3.org/Graphics/SVG/1.1/DTD/svg11.dtd">
<svg version="1.1"
	 id="svg2183" inkscape:version="0.45.1" sodipodi:version="0.32" sodipodi:docbase="C:\Documents and Settings\ja\Pulpit" sodipodi:docname="retic.svg" inkscape:output_extension="org.inkscape.output.svg.inkscape" xmlns:inkscape="http://www.inkscape.org/namespaces/inkscape" xmlns:sodipodi="http://sodipodi.sourceforge.net/DTD/sodipodi-0.dtd" xmlns:rdf="http://www.w3.org/1999/02/22-rdf-syntax-ns#" xmlns:svg="http://www.w3.org/2000/svg" xmlns:cc="http://web.resource.org/cc/" xmlns:dc="http://purl.org/dc/elements/1.1/"
	 xmlns="http://www.w3.org/2000/svg" xmlns:xlink="http://www.w3.org/1999/xlink" x="0px" y="0px" width="640px" height="480px"
	 viewBox="0 0 640 480" enable-background="new 0 0 640 480" xml:space="preserve">
<sodipodi:namedview  id="base" bordercolor="#666666" pagecolor="#ffffff" borderopacity="1.0" inkscape:cx="320" inkscape:pageopacity="0.0" inkscape:pageshadow="2" inkscape:zoom="0.77472527" inkscape:cy="226.19594" inkscape:current-layer="layer1" inkscape:document-units="px" inkscape:window-width="868" inkscape:window-height="616" inkscape:window-x="44" inkscape:window-y="58">
	</sodipodi:namedview>
<g id="layer1" inkscape:groupmode="layer" inkscape:label="Layer 1">
	
		<path id="path2343" sodipodi:type="arc" sodipodi:cx="337.14285" sodipodi:cy="420.93362" sodipodi:rx="191.42857" sodipodi:ry="191.42857" fill="none" stroke="#FF0000" stroke-width="2.1635" stroke-linecap="round" stroke-linejoin="round" d="
		M549.476,241.577c0.033,123.49-100.05,223.625-223.54,223.658c-123.49,0.032-223.625-100.05-223.658-223.54
		c0-0.039,0-0.079,0-0.118c-0.033-123.491,100.049-223.626,223.54-223.658c123.49-0.033,223.626,100.049,223.658,223.54
		C549.476,241.498,549.476,241.537,549.476,241.577z"/>
	<path id="path3319" fill="none" stroke="#FF0000" stroke-width="5.0541" d="M102.104,241.498h134.16"/>
	<path id="path7197" fill="none" stroke="#FF0000" stroke-width="5.0541" d="M415.504,241.49h134.185"/>
	<path id="path8168" fill="none" stroke="#FF0000" stroke-width="1.2635" d="M236.457,241.456h178.836"/>
	<path id="path9141" fill="none" stroke="#FF0000" stroke-width="5.0541" d="M325.997,331.184v134.125"/>
	<path id="path10112" fill="none" stroke="#FF0000" stroke-width="1.2635" d="M326.031,16.669v314.276"/>
	<path id="path11083" fill="none" stroke="#FF0000" stroke-width="0.5102" d="M258.831,230.785v21.87"/>
	<path id="path12054" fill="none" stroke="#FF0000" stroke-width="0.5093" d="M281.214,230.786v21.872"/>
	<path id="path13025" fill="none" stroke="#FF0000" stroke-width="0.506" d="M303.589,230.793v21.878"/>
	<path id="path13996" fill="none" stroke="#FF0000" stroke-width="0.5093" d="M348.369,230.786v21.872"/>
	<path id="path14967" fill="none" stroke="#FF0000" stroke-width="0.5023" d="M370.76,230.774v21.886"/>
	<path id="path15940" fill="none" stroke="#FF0000" stroke-width="0.5013" d="M393.055,230.304v21.887"/>
	<path id="path16911" fill="none" stroke="#FF0000" stroke-width="1.2635" d="M121.304,330.979h409.369"/>
	<path id="path17886" sodipodi:nodetypes="cc" fill="none" stroke="#FF0000" stroke-width="1.2635" d="M214.221,331.388
		c59.409,14.813,90.237,57.812,89.001,132.428"/>
	<path id="path18865" sodipodi:nodetypes="cc" fill="none" stroke="#FF0000" stroke-width="1.2635" d="M437.568,331.388
		c-59.408,14.814-90.236,57.812-89.001,132.428"/>
	<path id="path18885" fill="none" stroke="#FF0000" stroke-width="0.5054" d="M314.857,219.018h22.038"/>
	<path id="path19856" fill="none" stroke="#FF0000" stroke-width="0.5054" d="M314.767,196.672h22.097"/>
	<path id="path22765" fill="none" stroke="#FF0000" stroke-width="0.5011" d="M314.935,174.399h21.889"/>
	<path id="path23736" fill="none" stroke="#FF0000" stroke-width="0.5054" d="M315.08,308.101h21.593"/>
	<path id="path24707" fill="none" stroke="#FF0000" stroke-width="0.5054" d="M314.782,286.249h22.223"/>
	<path id="path25680" fill="none" stroke="#FF0000" stroke-width="0.5054" d="M315.169,263.861h21.416"/>
	<path id="path26651" fill="none" stroke="#FF0000" stroke-width="1.2635" d="M302.602,442.773h46.059"/>
	<path id="path27622" fill="none" stroke="#FF0000" stroke-width="1.2635" d="M299.781,420.37h52.026"/>
	<path id="path28593" fill="none" stroke="#FF0000" stroke-width="1.2635" d="M293.194,398.005h65.502"/>
	<path id="path29564" fill="none" stroke="#FF0000" stroke-width="1.2635" d="M281.574,375.666h88.651"/>
	<path id="path30535" fill="none" stroke="#FF0000" stroke-width="1.2635" d="M261.245,353.26H391.04"/>
</g>
<head  xmlns=""></head>
</svg>
